<?xml version="1.0" standalone="no"?>
<!DOCTYPE svg PUBLIC "-//W3C//DTD SVG 20010904//EN"
 "http://www.w3.org/TR/2001/REC-SVG-20010904/DTD/svg10.dtd">
<svg version="1.0" xmlns="http://www.w3.org/2000/svg"
 width="700.000000pt" height="700.000000pt" viewBox="0 0 700.000000 700.000000"
 preserveAspectRatio="xMidYMid meet">
<metadata>
Created by potrace 1.14, written by Peter Selinger 2001-2017
</metadata>
<g transform="translate(0.000000,700.000000) scale(0.100000,-0.100000)"
fill="#000000" stroke="none">
<path d="M3380 6989 c-25 -6 -49 -11 -55 -12 -5 -2 -16 -6 -22 -10 -7 -5 -13
-6 -13 -2 0 9 -141 -65 -184 -98 -152 -114 -250 -309 -255 -503 -5 -169 45
-303 174 -469 141 -183 240 -437 270 -695 3 -30 8 -71 11 -90 7 -51 6 -327 -1
-385 -16 -133 -24 -181 -45 -270 -24 -99 -58 -200 -98 -287 -31 -68 -114 -205
-136 -223 -22 -19 -83 -110 -110 -163 -110 -218 -78 -506 75 -693 19 -23 36
-45 39 -48 15 -21 127 -104 168 -125 108 -54 187 -71 327 -70 158 1 306 62
430 177 122 113 431 234 670 262 33 4 69 9 80 12 51 11 341 10 440 -2 339 -40
572 -129 784 -300 132 -105 250 -148 416 -149 96 0 122 3 199 29 322 104 503
420 441 765 -11 60 -65 178 -109 238 -206 279 -568 351 -871 175 -17 -10 -62
-43 -100 -74 -103 -82 -165 -117 -310 -177 -52 -22 -208 -68 -260 -76 -16 -3
-55 -10 -85 -16 -119 -23 -350 -30 -515 -16 -276 23 -576 121 -737 239 -121
89 -264 456 -295 757 -10 94 -10 363 -1 450 32 294 127 562 258 730 151 194
201 321 194 500 -4 103 -19 161 -69 266 -41 86 -114 175 -193 236 -44 35 -128
77 -197 98 -81 25 -245 35 -315 19z"/>
<path d="M4917 5574 c-1 -2 -25 -4 -52 -5 -70 -3 -174 -33 -242 -70 -177 -95
-290 -242 -338 -439 -14 -56 -15 -230 -1 -284 31 -126 85 -222 178 -317 122
-123 283 -191 453 -191 103 0 134 5 219 33 221 74 395 277 433 504 4 22 7 81
7 130 -1 180 -74 340 -216 469 -68 63 -188 129 -265 147 -49 11 -172 27 -176
23z"/>
<path d="M1955 5564 c-190 -48 -327 -141 -425 -290 -161 -245 -135 -577 61
-792 107 -116 184 -272 238 -484 30 -116 35 -143 46 -238 4 -30 9 -66 11 -80
5 -29 5 -299 0 -350 -9 -91 -19 -161 -32 -225 -9 -38 -17 -77 -19 -85 -1 -8
-8 -35 -15 -60 -7 -25 -12 -46 -12 -47 0 -1 -19 -49 -42 -107 -44 -108 -112
-225 -166 -286 -86 -96 -136 -195 -160 -310 -68 -333 110 -645 433 -757 91
-32 249 -40 347 -18 87 20 213 83 280 141 169 145 382 233 695 289 107 19 371
25 505 11 256 -25 479 -91 653 -193 73 -43 70 -41 127 -91 120 -105 255 -161
407 -169 385 -22 703 290 688 674 -9 213 -110 396 -285 515 -120 80 -221 112
-365 112 -173 -1 -282 -42 -443 -168 -180 -141 -415 -234 -692 -272 -167 -24
-417 -23 -590 0 -149 21 -359 84 -482 147 -157 79 -198 119 -276 274 -123 247
-173 492 -167 830 4 209 6 229 40 393 44 209 125 391 243 547 81 108 102 143
131 220 30 81 36 123 35 250 -1 96 -5 120 -31 191 -73 195 -212 333 -405 401
-60 22 -94 27 -193 29 -66 2 -129 1 -140 -2z"/>
<path d="M510 4134 c-236 -51 -442 -257 -496 -499 -13 -57 -12 -222 1 -276 29
-120 68 -199 144 -288 115 -137 286 -219 469 -226 374 -13 681 282 677 650 -2
107 -9 149 -41 235 -113 300 -434 473 -754 404z"/>
<path d="M3425 1299 c-70 -10 -94 -15 -141 -32 -187 -68 -331 -214 -402 -409
-24 -66 -27 -87 -27 -208 0 -121 3 -142 27 -208 37 -103 82 -174 159 -251 76
-77 166 -133 264 -164 102 -32 301 -32 398 1 210 70 377 248 433 462 22 85 22
235 1 318 -62 235 -246 418 -477 475 -79 20 -168 26 -235 16z"/>
</g>
</svg>
